<?xml version="1.0" standalone="no"?>
<!DOCTYPE svg PUBLIC "-//W3C//DTD SVG 20010904//EN"
 "http://www.w3.org/TR/2001/REC-SVG-20010904/DTD/svg10.dtd">
<svg version="1.0" xmlns="http://www.w3.org/2000/svg"
 width="1720.000000pt" height="1720.000000pt" viewBox="0 0 1720.000000 1720.000000"
 preserveAspectRatio="xMidYMid meet">
<metadata>
Created by potrace 1.14, written by Peter Selinger 2001-2017
</metadata>
<g transform="translate(0.000000,1720.000000) scale(0.100000,-0.100000)"
fill="#000000" stroke="none">
<path d="M8477 16514 c-1 -1 -63 -4 -137 -8 -74 -3 -146 -8 -160 -10 -14 -3
-52 -7 -85 -11 -110 -11 -139 -16 -255 -36 -147 -26 -355 -73 -445 -100 -670
-201 -1172 -468 -1686 -898 -167 -139 -418 -396 -555 -566 -26 -33 -51 -62
-54 -65 -3 -3 -34 -43 -69 -90 -99 -132 -239 -349 -343 -531 -53 -91 -107
-184 -122 -207 -14 -23 -26 -44 -26 -47 0 -3 -18 -35 -40 -71 -22 -36 -40 -67
-40 -69 0 -2 -37 -65 -81 -141 -45 -77 -92 -157 -104 -179 -26 -47 -89 -157
-116 -200 -10 -16 -24 -41 -32 -55 -7 -14 -168 -293 -357 -620 -189 -327 -352
-611 -363 -630 -10 -19 -23 -39 -27 -45 -4 -5 -19 -30 -32 -55 -50 -90 -70
-125 -78 -135 -4 -5 -21 -35 -38 -65 -27 -50 -116 -204 -267 -464 -32 -55 -67
-116 -79 -137 -11 -21 -53 -94 -92 -161 -40 -68 -104 -179 -144 -248 -136
-235 -275 -475 -293 -505 -10 -16 -23 -42 -30 -57 -6 -16 -15 -28 -19 -28 -4
0 -8 -4 -8 -8 0 -5 -39 -76 -86 -158 -48 -82 -98 -169 -112 -194 -13 -25 -28
-49 -32 -55 -6 -8 -188 -323 -260 -450 -49 -85 -549 -951 -589 -1020 -26 -44
-50 -87 -54 -95 -4 -8 -15 -28 -26 -45 -10 -16 -27 -46 -38 -65 -43 -75 -214
-371 -277 -479 -36 -62 -66 -117 -66 -121 0 -5 -3 -10 -7 -12 -9 -3 -22 -28
-117 -213 -217 -421 -370 -899 -442 -1375 -3 -19 -7 -47 -10 -62 -6 -38 -21
-194 -29 -313 -5 -65 -5 -486 0 -549 7 -105 25 -280 31 -311 2 -11 7 -40 10
-65 9 -71 34 -211 54 -295 6 -27 14 -61 16 -75 3 -14 14 -59 25 -100 128 -481
317 -911 576 -1308 79 -121 223 -320 277 -383 17 -20 49 -58 71 -85 110 -133
339 -362 484 -484 29 -25 65 -55 80 -68 56 -49 251 -193 351 -259 244 -161
518 -309 750 -403 30 -12 69 -28 85 -35 77 -34 386 -137 449 -150 10 -3 42
-11 70 -19 48 -13 266 -62 325 -72 14 -3 37 -7 50 -9 118 -20 305 -43 436 -52
187 -13 635 -6 745 11 14 3 52 7 85 11 33 3 85 10 115 15 30 5 73 12 95 15
303 44 704 162 1040 307 141 61 407 194 457 229 14 11 29 19 33 19 4 0 27 14
52 30 24 17 48 30 54 30 5 0 9 5 9 10 0 6 5 10 11 10 20 0 362 245 454 325 17
15 55 48 85 73 363 310 691 715 975 1204 92 160 115 193 115 168 0 -24 126
-267 180 -346 16 -25 30 -47 30 -50 0 -17 233 -339 329 -454 594 -711 1363
-1209 2249 -1455 70 -19 137 -37 147 -39 193 -41 266 -56 300 -60 11 -2 34 -6
50 -9 31 -7 67 -11 170 -23 33 -3 74 -8 90 -10 191 -24 659 -24 870 0 17 2 58
7 92 10 34 4 70 8 80 10 10 2 40 7 66 10 27 4 59 9 70 12 12 2 49 9 82 15 301
53 682 174 997 315 113 50 371 184 433 224 17 11 37 23 45 27 8 4 60 36 114
72 55 36 106 71 115 76 73 48 348 259 371 284 3 3 25 24 50 45 396 343 780
845 1031 1346 141 284 285 678 345 950 4 19 9 40 10 45 12 50 44 209 49 245 3
25 8 52 10 60 8 29 31 222 42 355 10 115 10 562 0 680 -8 95 -34 313 -42 355
-3 13 -7 42 -11 65 -7 51 -51 259 -64 305 -66 234 -86 303 -120 399 -106 302
-234 567 -479 990 -85 146 -161 279 -171 295 -10 17 -41 72 -70 121 -29 50
-60 104 -70 120 -45 80 -92 161 -100 175 -28 44 -210 362 -210 367 0 3 -8 17
-19 31 -10 15 -32 52 -49 82 -16 30 -68 120 -114 200 -87 148 -292 503 -333
575 -13 22 -123 213 -245 425 -123 212 -234 405 -248 430 -14 25 -35 61 -47
80 -12 19 -33 55 -47 80 -14 25 -67 117 -118 205 -51 88 -104 180 -118 205
-14 25 -87 152 -164 283 -76 131 -138 241 -138 243 0 3 -8 17 -19 32 -10 15
-89 151 -176 302 -86 151 -174 304 -195 340 -36 61 -381 656 -421 728 -11 17
-29 49 -40 70 -12 20 -43 74 -70 120 -27 45 -49 85 -49 88 0 3 -13 25 -30 49
-16 24 -30 46 -30 49 0 3 -31 58 -69 123 -37 65 -155 269 -261 453 -106 184
-211 364 -232 400 -22 36 -45 74 -51 85 -224 370 -512 721 -834 1014 -55 50
-334 275 -385 309 -18 12 -55 38 -83 58 -352 247 -833 476 -1255 597 -119 34
-257 70 -310 81 -14 3 -36 7 -50 10 -29 7 -119 23 -170 31 -19 3 -46 8 -60 10
-29 6 -44 8 -235 30 -104 12 -547 28 -558 19z m250 -4057 c137 -47 195 -110
328 -352 l28 -50 -100 -171 c-55 -94 -103 -178 -107 -185 -3 -8 -16 -30 -27
-49 -34 -57 -204 -351 -234 -405 -16 -27 -36 -61 -47 -74 -10 -13 -18 -28 -18
-33 0 -4 -11 -25 -23 -46 -19 -30 -264 -452 -349 -602 -11 -19 -37 -64 -58
-100 -21 -36 -47 -81 -58 -100 -11 -19 -61 -107 -112 -195 -51 -88 -101 -173
-110 -190 -29 -51 -306 -529 -423 -732 -62 -106 -116 -201 -122 -210 -5 -10
-35 -61 -65 -113 -30 -52 -62 -107 -70 -121 -26 -46 -181 -313 -190 -329 -5
-8 -92 -159 -193 -335 -203 -351 -189 -328 -311 -540 -47 -82 -90 -157 -95
-165 -6 -8 -32 -53 -59 -100 -26 -47 -117 -204 -201 -350 -85 -146 -162 -280
-172 -297 -11 -18 -28 -50 -40 -70 -12 -21 -31 -54 -42 -73 -30 -48 -51 -85
-87 -150 -17 -30 -40 -71 -51 -90 -12 -19 -82 -141 -157 -270 -74 -129 -183
-316 -240 -415 -140 -242 -144 -247 -156 -270 -124 -228 -218 -377 -271 -430
-33 -33 -71 -65 -85 -71 -103 -46 -126 -51 -215 -50 -258 4 -448 236 -402 491
11 61 31 107 104 233 31 53 114 198 186 322 265 460 315 546 341 590 15 25 29
53 33 63 3 9 9 17 14 17 5 0 9 4 9 9 0 5 82 150 181 322 100 173 193 334 207
359 25 45 56 98 79 135 7 11 24 43 39 70 14 28 32 57 40 66 8 8 14 18 14 22 0
5 209 370 284 497 19 30 45 75 58 100 14 25 90 158 170 295 80 138 273 473
430 745 157 272 294 509 304 527 11 18 51 87 90 155 83 144 303 525 539 933
92 160 217 376 278 480 60 105 121 210 135 235 45 80 393 681 465 805 99 169
175 235 306 270 58 15 173 11 228 -8z m2763 -4567 c40 -69 85 -147 100 -175
33 -58 88 -152 123 -210 13 -22 88 -152 167 -290 79 -137 248 -430 375 -650
127 -220 275 -476 329 -570 54 -93 102 -177 107 -185 75 -127 129 -223 129
-229 0 -4 5 -12 12 -19 15 -15 87 -144 136 -242 36 -73 37 -78 37 -187 0 -76
-4 -116 -12 -125 -7 -6 -13 -18 -13 -25 0 -20 -66 -121 -98 -149 -41 -36 -124
-83 -178 -99 -69 -21 -195 -14 -264 15 -102 43 -143 81 -228 210 -213 326
-442 547 -745 719 -60 33 -111 61 -113 61 -3 0 -30 11 -60 25 -106 49 -297
109 -409 130 -84 16 -146 26 -200 32 -82 9 -302 9 -402 0 l-83 -7 30 50 c17
28 30 55 30 60 0 6 5 10 10 10 6 0 10 5 10 11 0 6 23 49 51 97 29 48 61 103
72 122 10 19 52 91 92 160 40 69 82 141 92 160 11 19 51 89 90 155 38 66 219
380 403 698 183 317 334 576 335 575 1 -2 35 -59 75 -128z"/>
</g>
</svg>
